<svg version="1.1" id="Layer_1" xmlns="http://www.w3.org/2000/svg" xmlns:xlink="http://www.w3.org/1999/xlink" x="0px" y="0px"
	 width="100%" viewBox="0 0 749 749" enable-background="new 0 0 749 749" xml:space="preserve">
<path fill="#000000" opacity="1.000000" stroke="none" 
	d="
M609.952637,141.050308 
	C625.095032,141.050308 640.237427,141.050308 655.771545,141.050308 
	C655.771545,156.899429 655.771545,172.636139 655.771545,188.762787 
	C671.223450,188.762787 686.293945,188.762787 701.680908,188.762787 
	C701.680908,359.946625 701.680908,530.738281 701.680908,701.765076 
	C686.611755,701.765076 671.545532,701.765076 656.085693,701.765076 
	C656.085693,686.622253 656.085693,671.552002 656.085693,655.996460 
	C640.763916,655.996460 625.829468,655.996460 610.449097,655.999451 
	C610.003174,656.002441 610.054382,656.054443 610.030396,655.582825 
	C610.006470,640.182373 610.006470,625.253540 610.006470,609.873413 
	C625.598755,609.873413 640.659363,609.873413 655.737061,609.873413 
	C655.737061,531.726624 655.737061,454.037842 655.737061,375.926636 
	C640.356506,375.926636 625.236389,375.926636 610.062256,375.463196 
	C610.018311,359.688599 610.028320,344.377441 610.503784,329.037079 
	C625.892944,329.007874 640.816650,329.007874 655.681519,329.007874 
	C655.681519,297.339355 655.681519,266.287567 655.681519,235.272476 
	C515.351868,235.272476 375.340942,235.272476 235.287140,235.272476 
	C235.287140,266.597351 235.287140,297.648865 235.287140,329.066254 
	C251.368881,329.066254 267.165283,329.066254 282.979492,329.528381 
	C282.959473,345.302521 282.921661,360.614502 282.423523,375.958923 
	C266.381012,375.991302 250.798843,375.991302 235.301132,375.991302 
	C235.301132,454.342865 235.301132,532.035400 235.301132,610.185303 
	C251.324997,610.185303 267.052277,610.185303 282.945618,610.185303 
	C282.945618,625.779968 282.945618,640.917175 282.971222,656.028442 
	C282.996826,656.002441 283.047302,655.949707 283.047302,655.949707 
	C267.249054,655.949707 251.450821,655.949707 235.275558,655.949707 
	C235.275558,671.189941 235.275558,686.249939 235.275558,701.654175 
	C219.848892,701.654175 204.790039,701.654175 189.176361,701.654175 
	C189.176361,686.771912 189.176361,671.589355 189.176361,656.039551 
	C172.903122,656.039551 157.177246,656.039551 141.003571,656.039551 
	C141.003571,640.743469 141.003571,625.819214 141.000641,610.449036 
	C140.997711,610.003174 140.945618,610.054443 141.417206,610.030518 
	C157.481964,610.006531 173.075104,610.006531 189.000000,610.006531 
	C189.000000,605.171814 189.000458,600.873535 188.999939,596.575317 
	C188.983704,460.699341 188.967361,324.823364 189.422241,188.970551 
	C329.855042,188.993729 469.816589,188.993729 610.054443,188.993729 
	C610.054443,172.547531 610.054443,156.746582 610.028809,140.971588 
	C610.003113,140.997559 609.952637,141.050308 609.952637,141.050308 
z"/>
<path fill="#000000" opacity="1.000000" stroke="none" 
	d="
M141.050568,95.047096 
	C141.050568,79.906815 141.050568,64.766541 141.050568,49.313316 
	C281.284027,49.313316 421.401642,49.313316 561.996460,49.313316 
	C561.996460,64.240295 561.996460,79.172668 561.999451,94.550919 
	C562.002441,94.996796 562.054443,94.945625 561.582825,94.969559 
	C502.324493,94.995659 443.537781,95.005714 384.751068,94.998093 
	C303.482574,94.987564 222.214096,94.963737 140.971710,94.971115 
	C140.997818,94.996628 141.050568,95.047096 141.050568,95.047096 
z"/>
<path fill="#000000" opacity="1.000000" stroke="none" 
	d="
M95.047241,561.949707 
	C79.906921,561.949707 64.766602,561.949707 49.313358,561.949707 
	C49.313358,421.716034 49.313358,281.598419 49.313358,141.003571 
	C64.240227,141.003571 79.172562,141.003571 94.550766,141.000702 
	C94.996628,140.997818 94.945602,140.945602 94.969543,141.417160 
	C94.995667,200.675461 95.005707,259.462219 94.998093,318.248962 
	C94.987564,399.517456 94.963745,480.785950 94.971199,562.028442 
	C94.996780,562.002441 95.047241,561.949707 95.047241,561.949707 
z"/>
<path fill="#000000" opacity="1.000000" stroke="none" 
	d="
M561.976074,95.022026 
	C577.721924,95.047256 593.494141,95.047256 609.996643,95.047256 
	C609.996643,110.068878 609.996643,125.088127 609.974609,140.578842 
	C609.952637,141.050308 610.003113,140.997559 609.557129,140.995529 
	C593.439026,140.993500 577.766785,140.993500 562.054443,140.993500 
	C562.054443,125.136375 562.054443,110.041000 562.054443,94.945625 
	C562.054443,94.945625 562.002441,94.996796 561.976074,95.022026 
z"/>
<path fill="#000000" opacity="1.000000" stroke="none" 
	d="
M141.024094,609.977905 
	C125.942940,609.952698 110.835403,609.952698 95.003342,609.952698 
	C95.003342,594.261230 95.003342,578.576965 95.025291,562.421204 
	C95.047241,561.949707 94.996780,562.002441 95.442795,562.004517 
	C110.895554,562.006531 125.902298,562.006531 140.945618,562.006531 
	C140.945618,578.535767 140.945618,594.295105 140.945618,610.054443 
	C140.945618,610.054443 140.997711,610.003174 141.024094,609.977905 
z"/>
<path fill="#000000" opacity="1.000000" stroke="none" 
	d="
M515.949951,655.952454 
	C515.949951,671.071777 515.949951,686.191040 515.949951,701.655151 
	C500.074158,701.655151 484.247467,701.655151 468.003571,701.655151 
	C468.003571,686.717407 468.003571,671.806152 468.000641,656.449036 
	C467.997711,656.003174 467.945618,656.054443 468.417206,656.030518 
	C484.610657,656.022522 500.332520,656.038452 516.028503,656.028687 
	C516.002625,656.002991 515.949951,655.952454 515.949951,655.952454 
z"/>
<path fill="#000000" opacity="1.000000" stroke="none" 
	d="
M609.977905,655.976074 
	C609.952698,671.069519 609.952698,686.189270 609.952698,701.654480 
	C594.075256,701.654480 578.248352,701.654480 562.003540,701.654480 
	C562.003540,686.717834 562.003540,671.806396 562.000549,656.449097 
	C561.997559,656.003174 561.945618,656.054382 562.417175,656.030396 
	C578.610596,656.022461 594.332520,656.038452 610.054382,656.054443 
	C610.054382,656.054443 610.003174,656.002441 609.977905,655.976074 
z"/>
<path fill="#000000" opacity="1.000000" stroke="none" 
	d="
M376.047302,655.949707 
	C360.663177,655.965271 345.279053,655.980835 329.449036,655.999451 
	C329.003174,656.002441 329.054382,656.054443 329.030457,655.582825 
	C329.006500,640.175415 329.006500,625.239624 329.006500,610.312622 
	C344.962311,610.312622 360.358154,610.312622 375.945618,610.312622 
	C375.945618,625.767578 375.945618,640.911011 375.971222,656.028442 
	C375.996826,656.002441 376.047302,655.949707 376.047302,655.949707 
z"/>
<path fill="#000000" opacity="1.000000" stroke="none" 
	d="
M468.024109,655.977905 
	C452.998627,655.967285 437.946777,655.981873 422.449036,655.999451 
	C422.003174,656.002441 422.054382,656.054443 422.030457,655.582825 
	C422.006500,640.175415 422.006500,625.239685 422.006500,610.312622 
	C437.628998,610.312622 452.691559,610.312622 467.945618,610.312622 
	C467.945618,625.767578 467.945618,640.911011 467.945618,656.054443 
	C467.945618,656.054443 467.997711,656.003174 468.024109,655.977905 
z"/>
<path fill="#000000" opacity="1.000000" stroke="none" 
	d="
M328.977936,655.976074 
	C328.952698,671.069275 328.952698,686.188782 328.952698,701.654114 
	C313.741760,701.654114 298.580475,701.654114 283.003326,701.654114 
	C283.003326,686.715332 283.003326,671.804016 283.025330,656.421143 
	C283.047302,655.949707 282.996826,656.002441 283.442810,656.004517 
	C298.944000,656.022522 313.999176,656.038513 329.054382,656.054443 
	C329.054382,656.054443 329.003174,656.002441 328.977936,655.976074 
z"/>
<path fill="#000000" opacity="1.000000" stroke="none" 
	d="
M421.977936,655.976074 
	C421.952698,671.069275 421.952698,686.188782 421.952698,701.654114 
	C406.741760,701.654114 391.580475,701.654114 376.003326,701.654114 
	C376.003326,686.715332 376.003326,671.804016 376.025330,656.421143 
	C376.047302,655.949707 375.996826,656.002441 376.442810,656.004517 
	C391.944000,656.022522 406.999176,656.038452 422.054382,656.054443 
	C422.054382,656.054443 422.003174,656.002441 421.977936,655.976074 
z"/>
<path fill="#000000" opacity="1.000000" stroke="none" 
	d="
M95.021866,141.024200 
	C95.047096,125.943878 95.047096,110.837181 95.047096,95.003334 
	C110.069984,95.003334 125.088760,95.003334 140.579056,95.025215 
	C141.050568,95.047096 140.997818,94.996628 140.995651,95.442711 
	C141.013199,110.942177 141.032913,125.995552 140.580933,141.027405 
	C125.054695,140.985779 110.000145,140.965683 94.945602,140.945602 
	C94.945602,140.945602 94.996628,140.997818 95.021866,141.024200 
z"/>
<path fill="#000000" opacity="1.000000" stroke="none" 
	d="
M562.023926,655.977905 
	C546.997803,655.967285 531.945312,655.981934 516.421387,655.974487 
	C515.949951,655.952454 516.002625,656.002991 516.004517,655.557129 
	C516.006470,640.175476 516.006470,625.239746 516.006470,609.907227 
	C531.648438,610.448669 546.780945,608.895447 561.945618,611.485718 
	C561.945618,626.422791 561.945618,641.238586 561.945618,656.054382 
	C561.945618,656.054382 561.997559,656.003174 562.023926,655.977905 
z"/>
<path fill="#E3B28A" opacity="1.000000" stroke="none" 
	d="
M562.417175,656.030396 
	C561.945618,641.238586 561.945618,626.422791 561.945618,611.485718 
	C546.780945,608.895447 531.648438,610.448669 516.006470,609.907227 
	C516.006470,625.239746 516.006470,640.175476 516.030396,655.582825 
	C500.332520,656.038452 484.610657,656.022522 468.417206,656.030518 
	C467.945618,640.911011 467.945618,625.767578 467.945618,610.312622 
	C452.691559,610.312622 437.628998,610.312622 422.006500,610.312622 
	C422.006500,625.239685 422.006500,640.175415 422.030457,655.582825 
	C406.999176,656.038452 391.944000,656.022522 376.417206,656.030518 
	C375.945618,640.911011 375.945618,625.767578 375.945618,610.312622 
	C360.358154,610.312622 344.962311,610.312622 329.006500,610.312622 
	C329.006500,625.239624 329.006500,640.175415 329.030457,655.582886 
	C313.999176,656.038513 298.944000,656.022522 283.417206,656.030518 
	C282.945618,640.917175 282.945618,625.779968 282.945618,610.185303 
	C267.052277,610.185303 251.324997,610.185303 235.301132,610.185303 
	C235.301132,532.035400 235.301132,454.342865 235.301132,375.991302 
	C250.798843,375.991302 266.381012,375.991302 282.466309,376.428528 
	C282.969421,391.768616 282.969421,406.671417 282.969421,421.625061 
	C329.675385,421.625061 375.642365,421.625061 422.115143,421.625061 
	C422.115143,406.143799 422.115143,391.034332 422.574310,375.957764 
	C437.983917,375.968781 452.934357,375.946869 467.926361,376.396606 
	C467.967926,391.770935 467.967926,406.673553 467.967926,421.625732 
	C515.676270,421.625732 562.642090,421.625732 610.116211,421.625732 
	C610.116211,406.145294 610.116211,391.035980 610.116211,375.926636 
	C625.236389,375.926636 640.356506,375.926636 655.737061,375.926636 
	C655.737061,454.037842 655.737061,531.726624 655.737061,609.873413 
	C640.659363,609.873413 625.598755,609.873413 610.006470,609.873413 
	C610.006470,625.253540 610.006470,640.182373 610.030396,655.582825 
	C594.332520,656.038452 578.610596,656.022461 562.417175,656.030396 
z"/>
<path fill="#E3B28A" opacity="1.000000" stroke="none" 
	d="
M141.052628,141.048935 
	C141.032913,125.995552 141.013199,110.942177 140.969543,95.417198 
	C222.214096,94.963737 303.482574,94.987564 384.751068,94.998093 
	C443.537781,95.005714 502.324493,94.995659 561.582825,94.969559 
	C562.054443,110.041000 562.054443,125.136375 562.054443,140.993500 
	C577.766785,140.993500 593.439026,140.993500 609.582825,140.969559 
	C610.054443,156.746582 610.054443,172.547531 610.054443,188.993729 
	C469.816589,188.993729 329.855042,188.993729 189.446747,188.996277 
	C189.000046,188.998825 189.049683,189.049683 189.027802,188.578323 
	C189.005936,172.435364 189.005936,156.763763 189.005936,140.950302 
	C172.469162,140.950302 156.709732,140.950302 140.975739,140.975113 
	C141.001175,140.999924 141.052628,141.048935 141.052628,141.048935 
z"/>
<path fill="#E3B28A" opacity="1.000000" stroke="none" 
	d="
M282.961670,329.066254 
	C267.165283,329.066254 251.368881,329.066254 235.287140,329.066254 
	C235.287140,297.648865 235.287140,266.597351 235.287140,235.272476 
	C375.340942,235.272476 515.351868,235.272476 655.681519,235.272476 
	C655.681519,266.287567 655.681519,297.339355 655.681519,329.007874 
	C640.816650,329.007874 625.892944,329.007874 610.034302,329.011169 
	C562.053406,329.031494 515.007446,329.048553 467.494812,329.036316 
	C452.031647,329.026581 437.035095,329.046112 421.568054,329.041840 
	C375.052246,329.034119 329.006958,329.050171 282.961670,329.066254 
z"/>
<path fill="#E3B28A" opacity="1.000000" stroke="none" 
	d="
M94.969543,141.417160 
	C110.000145,140.965683 125.054695,140.985779 140.580933,141.027405 
	C141.052628,141.048935 141.001175,140.999924 140.997620,141.446503 
	C140.994064,157.564667 140.994064,173.236252 140.994064,189.049683 
	C157.530884,189.049683 173.290283,189.049683 189.049683,189.049683 
	C189.049683,189.049683 189.000046,188.998825 188.975540,188.973114 
	C188.967361,324.823364 188.983704,460.699341 188.999939,596.575317 
	C189.000458,600.873535 189.000000,605.171814 189.000000,610.006531 
	C173.075104,610.006531 157.481964,610.006531 141.417206,610.030518 
	C140.945618,594.295105 140.945618,578.535767 140.945618,562.006531 
	C125.902298,562.006531 110.895554,562.006531 95.417206,562.030518 
	C94.963745,480.785950 94.987564,399.517456 94.998093,318.248962 
	C95.005707,259.462219 94.995667,200.675461 94.969543,141.417160 
z"/>
<path fill="#FFFFFF" opacity="1.000000" stroke="none" 
	d="
M467.961426,329.065613 
	C515.007446,329.048553 562.053406,329.031494 609.568909,329.040344 
	C610.028320,344.377441 610.018311,359.688599 610.062256,375.463196 
	C610.116211,391.035980 610.116211,406.145294 610.116211,421.625732 
	C562.642090,421.625732 515.676270,421.625732 467.967926,421.625732 
	C467.967926,406.673553 467.967926,391.770935 467.979889,375.933289 
	C467.981720,359.687408 467.971558,344.376495 467.961426,329.065613 
z"/>
<path fill="#FFFFFF" opacity="1.000000" stroke="none" 
	d="
M282.979492,329.528381 
	C329.006958,329.050171 375.052246,329.034119 421.550171,329.503510 
	C422.040253,345.300934 422.077698,360.612885 422.115143,375.924866 
	C422.115143,391.034332 422.115143,406.143799 422.115143,421.625061 
	C375.642365,421.625061 329.675385,421.625061 282.969421,421.625061 
	C282.969421,406.671417 282.969421,391.768616 282.926636,376.396149 
	C282.921661,360.614502 282.959473,345.302521 282.979492,329.528381 
z"/>
<path fill="#000000" opacity="1.000000" stroke="none" 
	d="
M422.574310,375.957764 
	C422.077698,360.612885 422.040253,345.300934 422.020691,329.527283 
	C437.035095,329.046112 452.031647,329.026581 467.494781,329.036316 
	C467.971558,344.376495 467.981720,359.687408 467.938324,375.461609 
	C452.934357,375.946869 437.983917,375.968781 422.574310,375.957764 
z"/>
<path fill="#000000" opacity="1.000000" stroke="none" 
	d="
M189.027802,188.578323 
	C173.290283,189.049683 157.530884,189.049683 140.994064,189.049683 
	C140.994064,173.236252 140.994064,157.564667 140.972198,141.421692 
	C156.709732,140.950302 172.469162,140.950302 189.005936,140.950302 
	C189.005936,156.763763 189.005936,172.435364 189.027802,188.578323 
z"/>
</svg>